<svg width="266" height="42" viewBox="0 0 266 42" fill="none" xmlns="http://www.w3.org/2000/svg">
<path fill-rule="evenodd" clip-rule="evenodd" d="M31.2577 20.9732L30.1787 0H14.5949L4.28563 20.9732H10.3094L0 41.9173H12.2879L13.7566 38.9516H25.9233L26.0736 41.9474H38.3606L37.2816 20.9732H31.2577ZM19.6299 26.9657L22.5671 20.9732H24.9945L25.294 26.9657H19.6299ZM76.0617 0H64.0742L59.6082 20.9732L55.0832 0H43.0959L38.5998 21.0934H44.5935L40.1585 41.9474H52.146L56.5819 21.0934H56.6421L61.137 41.9474H73.1243L77.8289 20.8248H77.6773L77.6804 20.824H80.6167C80.6167 20.8645 80.6063 20.9142 80.5866 20.9732C79.348 26.7667 80.3419 31.7105 83.5694 35.8057C86.7948 39.9008 91.3052 41.9474 97.1 41.9474C102.895 41.9474 108.273 39.9008 113.238 35.8057C118.203 31.7105 121.305 26.7667 122.543 20.9732C122.547 20.9636 122.546 20.9573 122.548 20.9493C122.548 20.9474 122.549 20.9454 122.549 20.9431H125.54L121.075 41.9474H133.062L137.528 20.9732L142.053 41.9474L155.509 20.9732L151.044 41.9474H163.032L167.497 20.9431H161.503L165.968 0H153.98L140.554 20.9431H140.524L135.999 0H124.012L119.571 20.824H116.58C117.758 15.0905 116.749 10.1975 113.552 6.1417C110.336 2.0475 105.831 0 100.037 0C94.2436 0 88.8583 2.04766 83.8835 6.1417C78.949 10.1975 75.8625 15.0905 74.6229 20.824L74.6259 20.8248H71.8341L76.0617 0ZM106.555 27.3253C108.683 25.5678 110.016 23.4508 110.556 20.9732C110.576 20.9142 110.586 20.8645 110.586 20.824H104.592C105.071 18.3869 104.632 16.3103 103.273 14.5912C101.895 12.8534 99.968 11.9851 97.4899 11.9851C95.0118 11.9851 92.7047 12.8534 90.5666 14.5912C88.4688 16.3103 87.1506 18.3869 86.6105 20.824H92.6052C92.6052 20.8643 92.5948 20.9142 92.5751 20.9732C92.0351 23.4508 92.4591 25.5678 93.8489 27.3253C95.2367 29.0837 97.1705 29.9625 99.6477 29.9625C102.125 29.9625 104.428 29.0837 106.555 27.3253ZM196.087 20.9732L195.008 0H179.424L169.114 20.9732H175.138L164.829 41.9173H177.117L178.585 38.9516H190.752L190.902 41.9474H203.189L202.11 20.9732H196.087ZM184.459 26.9656L187.396 20.973H189.823L190.123 26.9656H184.459ZM215.447 20.9431H221.441L219.522 29.9625H228.513L225.966 41.9474H204.987L209.452 20.9431H203.459L207.925 0H219.912L215.447 20.9431ZM265.667 0H251.881L243.759 11.385L240.493 0H226.707L232.731 20.9431H238.724L240.433 26.9366L237.256 41.9474H249.243L252.42 26.9366L256.706 20.9431H250.712L265.667 0Z" fill="#05D371"/>
</svg>
