<svg width="600" height="116" fill="none" xmlns="http://www.w3.org/2000/svg">
    <path fill-rule="evenodd" clip-rule="evenodd" d="M299.594 116c31.974 0 57.893-25.968 57.893-58S331.568 0 299.594 0c-11.959 0-23.072 3.633-32.297 9.858a10.085 10.085 0 00-6.78-2.608c-5.596 0-10.131 4.544-10.131 10.15 0 2.48.887 4.752 2.362 6.515C245.8 33.484 241.702 45.262 241.702 58c0 32.032 25.919 58 57.892 58zm-46.846-92.085a10.104 10.104 0 007.769 3.635c5.595 0 10.131-4.544 10.131-10.15 0-2.994-1.294-5.684-3.351-7.542a58.253 58.253 0 00-14.549 14.057zm19.347 18.208h54.562L321.229 31.9h-43.668l-5.466 10.223zm0 20.3h54.562L321.229 52.2h-43.668l-5.466 10.222zm54.562 20.3h-54.562l5.466-10.223h43.668l5.428 10.222zM50.656 31.9H0v10.15h45.229l5.427-10.15zm0 20.3H0v10.15h45.229l5.427-10.15zM0 72.427h50.439L45.01 82.65H0V72.427zm160.726 41.326H144.95L107.899 66.12 95.162 82.65H79.46L100.3 56.332 81.268 31.9h14.473l11.941 15.08 11.94-15.08h14.401l-18.815 24.505.072.218 45.446 57.13zm22.94-30.378h12.375L220.5 31.9h-12.953l-17.73 36.975L172.088 31.9h-12.954l24.532 51.475zm228.675-19.792H388.46l-5.427-10.15H416.9c4.631 0 6.947-2.828 6.947-5.655 0-2.828-2.316-5.655-6.947-5.655h-28.44L383.033 31.9h35.966c11.144 0 16.644 7.903 16.644 15.878 0 6.162-3.402 12.397-10.204 14.79l38.499 51.185h-15.27l-36.327-50.17zM600 31.9h-50.656l5.427 10.15H600V31.9zm0 20.3h-50.656l5.427 10.15H600V52.2zm0 20.227h-50.439l5.428 10.223H600V72.427zM479.568 61.842c1.447.29 3.618.508 3.618.508h22.506c4.631 0 6.947 2.247 6.947 5.075 0 2.828-2.316 4.858-6.947 4.858h-33.867l5.427 10.15h31.479s2.171-.217 3.618-.507c1.448-.29 1.882-.508 1.882-.508 6.802-2.392 10.204-8.627 10.204-14.79 0-7.975-5.283-14.428-16.427-14.428h-21.782c-4.632 0-6.948-2.248-6.948-5.075 0-2.828 2.316-5.002 6.948-5.002h34.229L514.304 31.9h-30.177c-11.144 0-16.644 7.903-16.644 15.878 0 6.162 3.401 11.165 10.203 13.557 0 0 .435.218 1.882.508zM390.774 89.9c4.796 0 8.684-3.896 8.684-8.7 0-4.805-3.888-8.7-8.684-8.7-4.796 0-8.684 3.895-8.684 8.7 0 4.804 3.888 8.7 8.684 8.7z" fill="#00FFE0"/>
</svg>
