<?xml version="1.0" encoding="UTF-8"?>
<svg xmlns="http://www.w3.org/2000/svg" xmlns:xlink="http://www.w3.org/1999/xlink" id="Layer_1" version="1.1" viewBox="0 0 1256 300">
  <!-- Generator: Adobe Illustrator 29.4.0, SVG Export Plug-In . SVG Version: 2.1.0 Build 152)  -->
  <defs>
    <style>
      .st0 {
        fill: url(#linear-gradient2);
      }

      .st1 {
        fill: url(#linear-gradient1);
      }

      .st2 {
        fill: url(#linear-gradient3);
      }

      .st3 {
        fill: url(#linear-gradient5);
      }

      .st4 {
        fill: url(#linear-gradient4);
      }

      .st5 {
        fill: url(#linear-gradient);
      }

      .st6 {
        fill: #001432;
      }
    </style>
    <linearGradient id="linear-gradient" x1="77.1" y1="279.6" x2="77.1" y2="-47.9" gradientTransform="translate(0 280) scale(1 -1)" gradientUnits="userSpaceOnUse">
      <stop offset="0" stop-color="#078a8a"></stop>
      <stop offset=".5" stop-color="#47c78a"></stop>
    </linearGradient>
    <linearGradient id="linear-gradient1" x1="331.7" y1="-12.6" x2="121.9" y2="-7.2" gradientTransform="translate(0 280) scale(1 -1)" gradientUnits="userSpaceOnUse">
      <stop offset=".5" stop-color="#47c78a"></stop>
      <stop offset="1" stop-color="#078a8a"></stop>
    </linearGradient>
    <linearGradient id="linear-gradient2" x1="333.4" y1="11.4" x2="113.6" y2="17.3" gradientTransform="translate(0 280) scale(1 -1)" gradientUnits="userSpaceOnUse">
      <stop offset=".5" stop-color="#47c78a"></stop>
      <stop offset="1" stop-color="#078a8a"></stop>
    </linearGradient>
    <linearGradient id="linear-gradient3" x1="333.8" y1="36" x2="111.4" y2="42" gradientTransform="translate(0 280) scale(1 -1)" gradientUnits="userSpaceOnUse">
      <stop offset=".5" stop-color="#47c78a"></stop>
      <stop offset="1" stop-color="#078a8a"></stop>
    </linearGradient>
    <linearGradient id="linear-gradient4" x1="333.9" y1="60.6" x2="111" y2="66.7" gradientTransform="translate(0 280) scale(1 -1)" gradientUnits="userSpaceOnUse">
      <stop offset=".5" stop-color="#47c78a"></stop>
      <stop offset="1" stop-color="#078a8a"></stop>
    </linearGradient>
    <linearGradient id="linear-gradient5" x1="333.9" y1="85.3" x2="111" y2="91.4" gradientTransform="translate(0 280) scale(1 -1)" gradientUnits="userSpaceOnUse">
      <stop offset=".5" stop-color="#47c78a"></stop>
      <stop offset="1" stop-color="#078a8a"></stop>
    </linearGradient>
  </defs>
  <path class="st6" d="M395,296c-10.1,0-18.4-2.7-24.8-7.9-6.4-5.3-9.6-13.6-9.6-25.1V61.6h27.7v199.1c0,3.5.9,6.2,2.8,8.1,1.9,1.9,4.6,2.8,8.1,2.8h15.2v24.4h-19.5Z"></path>
  <path class="st6" d="M480.9,300c-17.4,0-31.3-5.9-41.8-17.7-10.5-11.8-15.7-28-15.7-48.7v-112.6h27.7v105c0,17,3,29.4,9.1,37.5,6,8,15.4,12,27.9,12s24.8-4.5,32.7-13.4c7.9-8.9,11.9-21.2,11.9-36.8v-104.3h27.7v175h-26.4v-43.2l4.3,2.3c-3.5,14.3-10.2,25.4-20.1,33.2-9.9,7.8-22.3,11.7-37.3,11.7h0Z"></path>
  <path class="st6" d="M586.4,296V121h25.4l1,44.2-4-1.3c2-9.7,5.4-18,10.4-24.9,5-6.9,11.1-12.3,18.3-16.2,7.3-3.8,15.3-5.8,24.1-5.8,15.2,0,27.6,4.2,37.1,12.5,9.6,8.4,15.6,20,18,35l-5.3-.3c1.8-10.1,5-18.7,9.7-25.6,4.7-6.9,10.8-12.3,18.3-16,7.5-3.7,16.1-5.6,25.8-5.6s23.1,2.6,31.7,7.7c8.6,5.2,15.1,12.7,19.5,22.6,4.4,9.9,6.6,21.9,6.6,36v112.6h-27.7v-106.6c0-15.8-3.1-27.8-9.2-35.8-6.2-8-15.3-12-27.4-12s-15.3,2-21.3,5.9c-6.1,4-10.7,9.6-14,17-3.3,7.4-5,16.3-5,26.9v104.7h-27.7v-104.7c0-15.6-2.8-27.9-8.3-36.6-5.5-8.8-14.7-13.2-27.7-13.2s-15.3,2-21.3,5.9c-6.1,4-10.8,9.7-14.2,17.2-3.4,7.5-5.1,16.4-5.1,26.7v104.7h-27.7Z"></path>
  <path class="st6" d="M919.2,300c-16.5,0-30.8-3.7-42.8-11.2-12-7.5-21.3-18.1-27.7-31.9-6.5-13.8-9.7-29.9-9.7-48.4s3.2-34.6,9.7-48.2c6.5-13.6,15.6-24.3,27.4-31.9,11.8-7.6,25.7-11.4,41.8-11.4s28.6,3.6,40.3,10.7c11.7,7.2,20.7,17.6,27.2,31.2,6.5,13.6,9.7,30.3,9.7,49.8v8.3h-127.1c1.1,18.7,6.1,32.8,15,42.3,8.9,9.5,21,14.2,36.2,14.2s20.8-2.7,28.2-8.1c7.4-5.4,12.5-12.5,15.4-21.3l29.7,2.3c-4.6,15.6-13.4,28.4-26.2,38.5-12.9,10-28.6,15-47,15h0ZM868,192.6h96.7c-1.3-16.9-6.2-29.4-14.7-37.3-8.5-7.9-19.2-11.9-32.2-11.9s-24.5,4.1-33.2,12.4c-8.7,8.3-14.2,20.5-16.7,36.8Z"></path>
  <path class="st6" d="M1011.4,296V121h24.4l1.3,44.2-2.7-1c2.2-15,7-25.9,14.4-32.8,7.4-6.9,17.2-10.4,29.6-10.4h17.2v26.4h-16.8c-8.8,0-16.1,1.6-22,4.8-5.8,3.2-10.2,7.9-13.2,14.2-3,6.3-4.5,14.2-4.5,23.9v105.7h-27.7Z"></path>
  <path class="st6" d="M1154,300c-18,0-32.4-4.2-43.1-12.5-10.7-8.4-16-20-16-35s4.4-26.7,13.2-35.3c8.8-8.6,22.8-14.6,41.9-18.1l62.1-11.6c0-14.7-3.5-25.8-10.4-33-6.9-7.3-17.3-10.9-31.2-10.9s-21.7,2.7-28.7,8.1c-7.1,5.4-11.9,13.2-14.5,23.3l-29.4-2.3c3.3-16.5,11.3-29.9,23.9-40.1,12.7-10.2,28.9-15.4,48.7-15.4s39.6,6.3,51.5,19c11.9,12.7,17.8,30.1,17.8,52.3v72.3c0,4,.7,6.8,2.1,8.4,1.4,1.6,3.8,2.5,7.1,2.5h6.9v24.4c-.9.2-2.3.4-4.3.5-2,.1-4.1.2-6.3.2-7.9,0-14.4-1.3-19.3-3.8-5-2.5-8.5-6.5-10.7-11.9-2.2-5.4-3.3-12.5-3.3-21.3l3.3.7c-1.5,7.5-5.3,14.2-11.2,20.3-5.9,6.1-13.3,10.8-22.1,14.2s-18.2,5.1-28.1,5.1h0ZM1156.6,275.5c11.7,0,21.6-2.3,29.9-6.8,8.3-4.5,14.6-10.7,19-18.5,4.4-7.8,6.6-16.6,6.6-26.2v-12.5l-56.8,10.6c-11.9,2.2-20.1,5.6-24.6,10.1-4.5,4.5-6.8,10.4-6.8,17.7s2.9,14.5,8.8,19c5.8,4.5,13.8,6.8,23.9,6.8h0Z"></path>
  <path class="st5" d="M110.9,214.2V0h-12.3v209.7c0,37.4,3.5,74.8,30.9,84.7-44.2-8.4-43.2-53.9-43.2-92.7V0h-12.3v197.1c0,29.9,4.4,78.5,26,90.9-35.6-14.3-38.2-62.3-38.2-98.6V0h-12.3v185c0,23.3,1.6,62.5,20.2,88.6-35.6-31.2-32.6-65.5-32.6-96.5V0h-12.3v172.6c0,14.8-3.3,52.5,19.3,83.3-24.2-28.2-31.7-64.4-31.7-91.1V0H0v160.3c0,74,61.7,135.7,135.7,135.7h18.5c-30.9,0-43.2-9.2-43.2-81.8Z"></path>
  <path class="st1" d="M154.2,296h141.8v-12.3H121.8c7,10.2,17.5,12.3,32.3,12.3Z"></path>
  <path class="st0" d="M296,271.3v-12.3H113.6c.7,4.7,1.6,8.8,2.7,12.3h179.7Z"></path>
  <path class="st2" d="M296,246.7v-12.3H111.3c.2,4.4.5,8.5.8,12.3h183.9Z"></path>
  <path class="st4" d="M111,222h185v-12.3H110.9v4.5c0,2.7,0,5.3,0,7.8Z"></path>
  <path class="st3" d="M296,197.3v-12.3H110.9v12.3h185.1Z"></path>
</svg>
