<svg width="138" height="36" viewBox="0 0 138 36" fill="none" xmlns="http://www.w3.org/2000/svg">
<g clip-path="url(#clip0_16357_33491)">
<path d="M73.4782 20.8199L74.492 22.2262V26.1764L73.9816 26.8796V22.371L72.9678 20.9715V18.3174H73.4782V20.8199Z" fill="#EDE4CC"/>
<path d="M24.8215 0H19.179V7.17656L21.6402 9.55496V20.3784L12.5086 0H7.5863L0 7.27997V19.5649L1.02782 20.8817V25.3282L0 26.5967V29.7817L6.56547 36H11.2781V28.265H9.73982V26.5967L10.7676 25.3282V20.8817L9.73982 19.5649V12.1333L10.3062 13.3949V19.4133L11.334 20.73V24.9284L11.8444 24.4182V20.5783L10.8166 19.2616V14.5117L20.6123 36H31.3311V6.26656L24.8215 0Z" fill="#EDE4CC"/>
<path d="M0 2.97817V0H3.1394C3.68477 0 3.95047 0.654922 3.55892 1.02719L1.02782 3.41249C0.63627 3.77097 0 3.50211 0 2.97817Z" fill="#EDE4CC"/>
<path d="M10.3057 13.3945V19.4129L11.3335 20.7297V24.928L11.8439 24.4179V20.578L10.8161 19.2612V14.5113L10.3057 13.3945Z" fill="#EDE4CC"/>
<path d="M20.0526 10.5134V15.7734L20.612 16.9867V10.2652L19.0248 8.69336H17.7383V9.20351H18.7172L20.0526 10.5134Z" fill="#EDE4CC"/>
<path d="M54.4391 9.80957H40.3713L34.491 15.5108V18.944H43.9582V18.2891L44.979 17.2826H49.8384L50.8593 18.2891V19.9023L50.5027 20.3573V18.489L49.5797 17.6342H45.9439V18.1374H49.2721L49.9363 18.7441V20.4055H38.8331L33.9736 25.1003V30.898L39.2945 35.9926H49.7335L51.5235 33.9727L52.0339 35.9926H54.4391L60.3753 30.2914V15.5108L54.4391 9.80957ZM50.8593 26.5549L48.3491 28.9264H43.8463L43.3848 28.4231V26.7617L43.9512 26.155H50.8593V26.5618V26.5549Z" fill="#EDE4CC"/>
<path d="M59.7603 32.6084C59.5016 32.6084 59.2499 32.7601 58.8933 33.1117L57.355 34.6283C56.488 35.4832 56.6908 35.9933 57.9214 35.9933H60.3756V33.7735C60.3756 33.0151 60.1169 32.6153 59.7603 32.6153V32.6084Z" fill="#EDE4CC"/>
<path d="M34.4844 12.7877V9.80957H37.6238C38.1691 9.80957 38.4348 10.4645 38.0433 10.8368L35.5122 13.2221C35.1276 13.5874 34.4914 13.3117 34.4914 12.7877H34.4844Z" fill="#EDE4CC"/>
<path d="M60.3753 33.0083V35.9864H57.2359C56.6905 35.9864 56.4248 35.3315 56.8164 34.9592L59.3475 32.5739C59.732 32.2086 60.3683 32.4843 60.3683 33.0083H60.3753Z" fill="#EDE4CC"/>
<path d="M49.9368 20.3993V18.7378L49.2725 18.1312H45.9443V17.6279H49.5802L50.5031 18.4828V20.351L49.9368 20.3993Z" fill="#EDE4CC"/>
<path d="M73.8286 17.3171H84.1837V9.91309H74.1852L72.612 11.416V9.91309H63.1729V21.1226L64.1867 22.5703V26.9755L63.1729 28.4301V30.2294L69.0112 35.8824H74.1363V28.2302H72.7658L73.6259 27.1754V22.5703L72.612 21.1226V18.3168L73.8286 17.3171Z" fill="#EDE4CC"/>
<path d="M98.5026 9.91309L96.9294 11.416V9.91309H87.4902V21.1226L88.5041 22.5703V26.9755L87.4902 28.4301V30.2294L93.3285 35.8824H98.4537V28.2302H97.0832L97.9432 27.1754V22.5703L96.9294 21.1226V18.3168L98.146 17.3171H108.501V9.91309H98.5026Z" fill="#EDE4CC"/>
<path d="M97.7896 18.3174H97.2861V20.9715L98.3 22.371V26.8796L98.8104 26.1764V22.2262L97.7896 20.8199V18.3174Z" fill="#EDE4CC"/>
<path d="M112.424 13.1876C112.683 13.1876 112.934 13.036 113.291 12.6844L114.829 11.1677C115.696 10.3129 115.493 9.80273 114.263 9.80273H111.809V12.0226C111.809 12.7809 112.067 13.1808 112.424 13.1808V13.1876Z" fill="#EDE4CC"/>
<path d="M131.763 9.80957H117.696L111.815 15.5108V18.944H121.282V18.2891L122.303 17.2826H127.163L128.183 18.2891V19.9023L127.827 20.3573V18.489L126.904 17.6342H123.268V18.1374H126.596L127.261 18.7441V20.4055H116.157L111.298 25.1003V30.898L116.619 35.9926H127.058L128.848 33.9727L129.358 35.9926H131.763L137.7 30.2914V15.5108L131.763 9.80957ZM128.183 26.5549L125.673 28.9264H121.171L120.709 28.4231V26.7617L121.275 26.155H128.183V26.5618V26.5549Z" fill="#EDE4CC"/>
<path d="M137.084 32.6084C136.826 32.6084 136.574 32.7601 136.217 33.1117L134.679 34.6283C133.812 35.4832 134.015 35.9933 135.246 35.9933H137.7V33.7735C137.7 33.0151 137.441 32.6153 137.084 32.6153V32.6084Z" fill="#EDE4CC"/>
<path d="M111.809 12.7877V9.80957H114.948C115.493 9.80957 115.759 10.4645 115.368 10.8368L112.836 13.2221C112.452 13.5874 111.816 13.3117 111.816 12.7877H111.809Z" fill="#EDE4CC"/>
<path d="M137.7 33.0083V35.9864H134.561C134.016 35.9864 133.75 35.3315 134.142 34.9592L136.673 32.5739C137.057 32.2086 137.693 32.4843 137.693 33.0083H137.7Z" fill="#EDE4CC"/>
<path d="M127.261 20.3993V18.7378L126.597 18.1312H123.269V17.6279H126.904L127.827 18.4828V20.351L127.261 20.3993Z" fill="#EDE4CC"/>
</g>
<defs>
<clipPath id="clip0_16357_33491">
<rect width="137.7" height="36" fill="white"/>
</clipPath>
</defs>
</svg>
