<svg width="113" height="113" viewBox="0 0 113 113" fill="none" xmlns="http://www.w3.org/2000/svg">
<path d="M113 56.0862C113 54.8323 112.951 53.5855 112.852 52.3527C110.732 23.253 86.4872 0.211327 56.9103 0H56.0862C26.5128 0.211327 2.26458 23.26 0.14792 52.3527C0.0563503 53.589 0.00704379 54.8323 0 56.0862V56.9103C0 58.1642 0.0493065 59.4075 0.14792 60.6438C2.2681 89.7435 26.5163 112.792 56.0862 113H56.9103C86.4872 112.792 110.732 89.74 112.849 60.6438C112.94 59.411 112.989 58.1642 112.996 56.9103V56.0862H113ZM81.0529 13.2361C88.8539 17.6845 95.3166 24.1476 99.7647 31.9491C100.702 33.5939 98.8561 35.4325 97.2149 34.4921C96.7148 34.1997 96.1794 33.9109 95.6406 33.6292C91.9461 31.692 88.0791 30.1141 84.0852 28.9095C82.8843 24.9154 81.3065 21.0446 79.3729 17.3464C79.0947 16.8111 78.8024 16.2863 78.5101 15.7756C78.3093 15.4198 78.2283 15.0077 78.2847 14.6027C78.341 14.1976 78.5242 13.8208 78.8165 13.532C79.1053 13.2432 79.4821 13.0565 79.8871 13.0001C80.2922 12.9438 80.7042 13.0248 81.0599 13.2255M56.4982 6.74133C64.4612 6.74133 71.6952 14.7682 76.2561 26.923C63.211 24.3449 49.7855 24.3449 36.7404 26.923C41.3048 14.7647 48.5317 6.74133 56.4982 6.74133ZM61.0485 56.5018C61.0485 57.4246 60.7738 58.3262 60.2491 59.0905C59.7278 59.8513 58.9847 60.436 58.1218 60.767C57.9211 65.4832 57.3787 70.1781 56.4947 74.8132C55.6107 70.1781 55.0648 65.4832 54.8676 60.767C54.0083 60.436 53.2687 59.8548 52.7439 59.094C52.2227 58.3333 51.9409 57.4351 51.9409 56.5123C51.9409 55.5895 52.2191 54.6914 52.7439 53.9306C53.2651 53.1698 54.0047 52.5887 54.8676 52.2576C55.0683 47.5415 55.6107 42.8465 56.4947 38.2114C57.3787 42.8465 57.9246 47.5415 58.1218 52.2576C58.9847 52.5887 59.7278 53.1734 60.2491 53.9341C60.7703 54.6949 61.0485 55.6001 61.045 56.5229M13.2282 31.9491C17.6764 24.1476 24.1391 17.6845 31.9401 13.2326C33.5848 12.2992 35.4232 14.1448 34.4899 15.7826C34.1941 16.2827 33.9053 16.8216 33.6235 17.357C31.6865 21.0517 30.1052 24.919 28.9042 28.9095C24.9174 30.1141 21.0539 31.6955 17.3665 33.6292C16.8311 33.9109 16.3064 34.1997 15.7957 34.4921C15.44 34.6928 15.0279 34.7738 14.6229 34.721C14.2179 34.6682 13.841 34.4815 13.5523 34.1927C13.2635 33.9039 13.0768 33.527 13.0204 33.122C12.9641 32.7169 13.0451 32.3048 13.2458 31.9491M6.8043 56.4806C6.80782 55.7304 7.12479 55.0154 7.67773 54.5118C11.6328 50.9157 18.0885 45.6149 26.143 41.1066C28.5978 39.7259 31.123 38.4756 33.7081 37.3626C38.3429 35.3374 43.2031 33.8792 48.1866 33.0269C43.8265 34.5696 39.9841 37.2957 37.0856 40.9023C34.187 44.5054 32.3521 48.8482 31.7816 53.4375V53.4516C31.535 55.4768 31.535 57.5232 31.7816 59.5484V59.5625C32.3556 64.1553 34.1941 68.4981 37.0996 72.1047C40.0017 75.7114 43.8546 78.4375 48.2183 79.9767H48.1971C43.2136 79.1137 38.3534 77.6521 33.7221 75.6233C31.13 74.5068 28.6013 73.2565 26.143 71.8758C18.1061 67.371 11.6539 62.1055 7.6883 58.4918C7.12479 57.9775 6.80078 57.2485 6.8043 56.4842V56.4806ZM31.9436 99.7674C24.1426 95.3155 17.6799 88.8524 13.2318 81.0509C12.2949 79.4096 14.1404 77.5675 15.7816 78.5079C16.2817 78.8038 16.817 79.0891 17.3524 79.3744C21.0468 81.308 24.9139 82.8895 28.9042 84.094C30.1052 88.0881 31.683 91.9589 33.6165 95.6536C33.8982 96.1889 34.187 96.7138 34.4829 97.2245C34.6836 97.5802 34.7611 97.9923 34.7048 98.3973C34.6484 98.8024 34.4617 99.1792 34.1729 99.468C33.8842 99.7569 33.5108 99.9435 33.1058 99.9999C32.7008 100.056 32.2887 99.9788 31.933 99.778M56.4982 106.255C48.5352 106.255 41.3013 98.2283 36.7404 86.0699C43.2453 87.3731 49.8665 88.0212 56.4982 88.0036C63.1335 88.0212 69.7511 87.3731 76.2561 86.0699C71.6917 98.2353 64.4648 106.255 56.4982 106.255ZM99.7647 81.0509C95.3166 88.8559 88.8539 95.319 81.0494 99.7674C79.4082 100.704 77.5662 98.8587 78.5066 97.2139C78.7989 96.7138 79.0877 96.1819 79.3694 95.643C81.3029 91.9518 82.8843 88.081 84.0888 84.0905C88.0826 82.8859 91.9531 81.308 95.6511 79.3779C96.1865 79.0961 96.7112 78.8073 97.2254 78.5115C98.8666 77.5746 100.709 79.4131 99.7753 81.0544M106.199 56.4982C106.199 57.2555 105.879 57.9775 105.319 58.4882C101.353 62.0914 94.901 67.371 86.857 71.8828C84.4022 73.2635 81.877 74.5139 79.2884 75.6268C74.6571 77.6556 69.8004 79.1173 64.8205 79.9802H64.7958C69.163 78.4375 73.0159 75.7043 75.9144 72.0906C78.8165 68.477 80.6514 64.1271 81.2149 59.5308C81.4579 57.5302 81.4579 55.5085 81.2149 53.5115C80.6514 48.9186 78.8165 44.5724 75.9215 40.9587C73.0265 37.3485 69.1806 34.6153 64.8169 33.0691C69.7969 33.9321 74.6571 35.3902 79.2884 37.4154C81.87 38.5214 84.3952 39.7612 86.8499 41.1313C94.908 45.6466 101.367 50.9368 105.333 54.5399C105.886 55.0436 106.199 55.7551 106.199 56.5018V56.4982Z" fill="url(#paint0_linear_4125_59780)"/>
<defs>
<linearGradient id="paint0_linear_4125_59780" x1="113" y1="-8.51478e-07" x2="97.1617" y2="125.283" gradientUnits="userSpaceOnUse">
<stop stop-color="#A7855B"/>
<stop offset="0.25" stop-color="#D8B987"/>
<stop offset="0.5" stop-color="#EBCC99"/>
<stop offset="0.75" stop-color="#D7A874"/>
<stop offset="1" stop-color="#A7855B"/>
</linearGradient>
</defs>
</svg>
